<svg width="249" height="55" viewBox="0 0 249 55" fill="none" xmlns="http://www.w3.org/2000/svg">
<path d="M12.45 0H53.9796V42.3147C53.9796 49.317 48.402 55 41.5296 55H0V12.6853C0 5.68303 5.57759 0 12.45 0Z" fill="#EC0000"/>
<path d="M98.1487 22.6058H91.7031V19.9524H98.1487V22.6058Z" fill="#EC0000"/>
<path d="M76.8428 20.3837C76.8428 25.5557 74.4773 28.1399 69.7463 28.1399C65.0154 28.1399 62.8633 25.6137 62.8633 20.5613V10.6196H66.6836V20.6121C66.6836 23.3992 67.7508 24.791 69.8886 24.791C72.0265 24.791 73.0367 23.4463 73.0367 20.757V10.6233H76.8428V20.3873V20.3837Z" fill="#EC0000"/>
<path d="M124.66 27.2265C123.426 27.8354 121.814 28.1398 119.829 28.1398C117.236 28.1398 115.198 27.3642 113.711 25.8093C112.228 24.2581 111.484 22.1886 111.484 19.6008C111.484 16.8462 112.32 14.6136 113.989 12.8993C115.657 11.1849 117.823 10.3296 120.487 10.3296C122.138 10.3296 123.529 10.5434 124.66 10.9675V14.7006C123.529 14.012 122.241 13.6676 120.793 13.6676C119.207 13.6676 117.926 14.1751 116.952 15.1935C115.977 16.212 115.49 17.5892 115.49 19.3253C115.49 21.0614 115.949 22.319 116.87 23.3049C117.788 24.2943 119.026 24.7872 120.584 24.7872C122.142 24.7872 123.429 24.4176 124.66 23.6818V27.2228V27.2265Z" fill="#EC0000"/>
<path d="M152.824 27.8391H148.452L145.823 23.4065C145.628 23.0694 145.439 22.7686 145.258 22.5076C145.076 22.243 144.895 22.0183 144.71 21.8298C144.525 21.6414 144.333 21.4964 144.134 21.3985C143.934 21.2971 143.714 21.2499 143.479 21.2499H142.455V27.8427H138.648V10.6196H144.681C148.783 10.6196 150.835 12.1817 150.835 15.3023C150.835 15.904 150.746 16.4585 150.565 16.9659C150.383 17.4733 150.127 17.9336 149.8 18.3396C149.473 18.7455 149.071 19.1007 148.605 19.3979C148.139 19.6951 147.616 19.927 147.043 20.0938V20.1409C147.296 20.2206 147.538 20.3511 147.773 20.5323C148.007 20.7135 148.235 20.9237 148.455 21.163C148.676 21.4022 148.886 21.6595 149.085 21.9386C149.284 22.214 149.469 22.4859 149.633 22.7504L152.827 27.8427L152.824 27.8391ZM142.451 13.5264V18.3178H144.102C144.92 18.3178 145.574 18.0786 146.069 17.5966C146.57 17.1073 146.823 16.502 146.823 15.7844C146.823 14.2803 145.941 13.5264 144.173 13.5264H142.451Z" fill="#EC0000"/>
<path d="M175.58 27.8391H165.445V10.6196H175.192V13.7765H169.251V17.6074H174.779V20.7534H169.251V24.6931H175.58V27.8391Z" fill="#EC0000"/>
<path d="M189.332 27.8391V10.6196H195.318C201.323 10.6196 204.321 13.4177 204.321 19.0137C204.321 21.6957 203.503 23.8378 201.863 25.4397C200.224 27.0417 198.043 27.8427 195.315 27.8427H189.328L189.332 27.8391ZM193.138 13.7765V24.6931H195.023C196.674 24.6931 197.968 24.1893 198.907 23.1817C199.847 22.1742 200.316 20.8005 200.316 19.0644C200.316 17.4226 199.85 16.1323 198.918 15.1936C197.986 14.2513 196.681 13.7837 194.998 13.7837H193.138V13.7765Z" fill="#EC0000"/>
<path d="M223.392 10.6196V13.6206H221.976V24.8381H223.392V27.8391H216.758V24.8381H218.174V13.6206H216.758V10.6196H223.392Z" fill="#EC0000"/>
<path d="M248.728 13.7765H243.908V27.8391H240.088V13.7765H235.289V10.6196H248.724V13.7765H248.728Z" fill="#EC0000"/>
<path d="M66.8014 44.5592H63.0664V38.1685H64.4786V43.392H66.8014V44.5592Z" fill="#EC0000"/>
<path d="M73.61 38.1685V39.2813H73.0835V43.4427H73.61V44.5556H71.1484V43.4427H71.6749V39.2813H71.1484V38.1685H73.61Z" fill="#EC0000"/>
<path d="M83.0359 44.3308C82.5771 44.5555 81.9795 44.6679 81.2431 44.6679C80.2827 44.6679 79.525 44.3815 78.9737 43.8051C78.4223 43.2288 78.1484 42.4603 78.1484 41.5033C78.1484 40.4811 78.4579 39.651 79.0769 39.0166C79.6958 38.3822 80.4997 38.0632 81.4886 38.0632C82.1004 38.0632 82.6162 38.143 83.0359 38.2989V39.6836C82.6162 39.4262 82.1395 39.2993 81.6024 39.2993C81.0155 39.2993 80.5388 39.4878 80.176 39.8648C79.8132 40.2418 79.6353 40.7529 79.6353 41.3982C79.6353 42.0434 79.8061 42.5074 80.1475 42.8735C80.489 43.2396 80.9479 43.4245 81.5242 43.4245C82.1004 43.4245 82.5806 43.2868 83.0359 43.0149V44.3308Z" fill="#EC0000"/>
<path d="M91.92 44.5592H88.1602V38.1685H91.7742V39.3393H89.5688V40.7603H91.6177V41.9275H89.5688V43.3884H91.9165V44.5556L91.92 44.5592Z" fill="#EC0000"/>
<path d="M102.595 44.5592H101.169L98.5862 40.5464C98.4332 40.3108 98.3301 40.1368 98.2732 40.0172H98.2554C98.2803 40.2419 98.291 40.5863 98.291 41.0503V44.5592H96.957V38.1685H98.4795L100.966 42.058C101.08 42.2356 101.183 42.406 101.279 42.58H101.297C101.272 42.4314 101.261 42.1378 101.261 41.7028V38.1685H102.595V44.5592Z" fill="#EC0000"/>
<path d="M107.767 44.3129V42.8883C108.02 43.1058 108.297 43.2689 108.592 43.3777C108.891 43.4864 109.19 43.5408 109.492 43.5408C109.67 43.5408 109.827 43.5263 109.958 43.4937C110.09 43.461 110.2 43.4139 110.289 43.3559C110.378 43.2979 110.446 43.2291 110.488 43.1529C110.531 43.0732 110.556 42.9898 110.556 42.8956C110.556 42.7723 110.52 42.6599 110.449 42.5621C110.378 42.4642 110.282 42.3736 110.165 42.2902C110.044 42.2068 109.901 42.1271 109.734 42.0509C109.567 41.9748 109.389 41.8951 109.197 41.8153C108.706 41.6087 108.343 41.3513 108.101 41.0541C107.86 40.7532 107.742 40.3907 107.742 39.9666C107.742 39.6331 107.806 39.3467 107.938 39.1075C108.069 38.8683 108.247 38.6725 108.475 38.5166C108.699 38.3644 108.962 38.2484 109.261 38.1759C109.56 38.1034 109.873 38.0671 110.204 38.0671C110.535 38.0671 110.819 38.0853 111.072 38.1288C111.324 38.1686 111.555 38.2303 111.769 38.3136V39.644C111.662 39.5715 111.548 39.5062 111.424 39.4482C111.299 39.3902 111.171 39.3431 111.043 39.3069C110.912 39.2706 110.78 39.2416 110.652 39.2235C110.52 39.2054 110.399 39.1981 110.282 39.1981C110.122 39.1981 109.976 39.2126 109.844 39.2452C109.713 39.2779 109.603 39.3214 109.51 39.3757C109.421 39.4337 109.35 39.499 109.3 39.5787C109.25 39.6585 109.226 39.7455 109.226 39.8434C109.226 39.9485 109.254 40.0464 109.307 40.1297C109.364 40.2167 109.442 40.2929 109.542 40.369C109.645 40.4451 109.766 40.5176 109.916 40.5901C110.061 40.6626 110.225 40.7387 110.41 40.8148C110.663 40.9236 110.887 41.036 111.086 41.1556C111.285 41.2752 111.456 41.413 111.598 41.5616C111.74 41.7138 111.851 41.8878 111.925 42.0799C112 42.2757 112.039 42.5004 112.039 42.7578C112.039 43.1131 111.972 43.4139 111.84 43.6568C111.708 43.8997 111.527 44.0954 111.299 44.244C111.072 44.3927 110.808 44.5014 110.506 44.5667C110.204 44.6319 109.887 44.6645 109.549 44.6645C109.211 44.6645 108.877 44.6355 108.567 44.5739C108.258 44.5123 107.988 44.4253 107.76 44.3057L107.767 44.3129Z" fill="#EC0000"/>
<path d="M120.861 44.5592H117.102V38.1685H120.716V39.3393H118.51V40.7603H120.559V41.9275H118.51V43.3884H120.858V44.5556L120.861 44.5592Z" fill="#EC0000"/>
<path d="M125.898 44.5592V38.1685H128.118C130.345 38.1685 131.458 39.2052 131.458 41.2823C131.458 42.2791 131.156 43.073 130.548 43.6675C129.939 44.262 129.132 44.5592 128.118 44.5592H125.898ZM127.311 39.3429V43.392H128.011C128.623 43.392 129.103 43.2035 129.452 42.8301C129.801 42.4568 129.975 41.9456 129.975 41.3004C129.975 40.6914 129.801 40.2129 129.456 39.8613C129.111 39.5133 128.627 39.3393 128.001 39.3393H127.311V39.3429Z" fill="#EC0000"/>
<path d="M150.174 44.5592H148.78V40.7349C148.78 40.3217 148.797 39.8649 148.833 39.3683H148.797C148.726 39.7598 148.659 40.0426 148.602 40.2165L147.133 44.5592H145.977L144.483 40.26C144.443 40.1441 144.376 39.8468 144.287 39.3683H144.248C144.287 39.9991 144.305 40.55 144.305 41.0249V44.5592H143.031V38.1685H145.098L146.379 41.9565C146.482 42.261 146.556 42.5655 146.603 42.87H146.628C146.706 42.5148 146.788 42.2103 146.877 41.9493L148.157 38.1721H150.174V44.5629V44.5592Z" fill="#EC0000"/>
<path d="M158.276 44.6679C157.379 44.6679 156.647 44.3706 156.081 43.7761C155.515 43.1816 155.234 42.4059 155.234 41.4489C155.234 40.4376 155.523 39.622 156.095 38.9985C156.668 38.375 157.429 38.0632 158.379 38.0632C159.275 38.0632 159.997 38.3605 160.549 38.9586C161.1 39.5567 161.378 40.3433 161.378 41.3221C161.378 42.3008 161.093 43.1345 160.517 43.7508C159.944 44.3634 159.197 44.6715 158.276 44.6715V44.6679ZM158.336 39.2993C157.842 39.2993 157.447 39.4878 157.155 39.8685C156.864 40.2491 156.718 40.7493 156.718 41.3728C156.718 41.9963 156.864 42.5074 157.155 42.8735C157.447 43.2396 157.828 43.4245 158.301 43.4245C158.774 43.4245 159.172 43.2469 159.46 42.888C159.745 42.5292 159.887 42.0325 159.887 41.3982C159.887 40.7638 159.748 40.2201 159.471 39.8503C159.193 39.4842 158.816 39.2993 158.333 39.2993H158.336Z" fill="#EC0000"/>
<path d="M172.091 44.5592H170.665L168.082 40.5464C167.929 40.3108 167.826 40.1368 167.769 40.0172H167.751C167.776 40.2419 167.787 40.5863 167.787 41.0503V44.5592H166.453V38.1685H167.976L170.462 42.058C170.576 42.2356 170.679 42.406 170.775 42.58H170.793C170.768 42.4314 170.757 42.1378 170.757 41.7028V38.1685H172.091V44.5592Z" fill="#EC0000"/>
<path d="M181.315 44.5592H177.555V38.1685H181.169V39.3393H178.963V40.7603H181.012V41.9275H178.963V43.3884H181.311V44.5556L181.315 44.5592Z" fill="#EC0000"/>
<path d="M191.075 38.1685L189.033 42.2864V44.5592H187.621V42.3154L185.633 38.1721H187.248L188.258 40.5573C188.276 40.6008 188.326 40.7748 188.404 41.0793H188.422C188.461 40.8654 188.503 40.6987 188.557 40.5754L189.585 38.1721H191.079L191.075 38.1685Z" fill="#EC0000"/>
<path d="M199.544 44.5592H195.809V38.1685H197.221V43.392H199.544V44.5592Z" fill="#EC0000"/>
<path d="M208.178 44.5592H204.418V38.1685H208.032V39.3393H205.827V40.7603H207.876V41.9275H205.827V43.3884H208.174V44.5556L208.178 44.5592Z" fill="#EC0000"/>
<path d="M218.853 44.5592H217.426L214.844 40.5464C214.691 40.3108 214.588 40.1368 214.531 40.0172H214.513C214.538 40.2419 214.549 40.5863 214.549 41.0503V44.5592H213.215V38.1685H214.737L217.224 42.058C217.338 42.2356 217.441 42.406 217.537 42.58H217.555C217.53 42.4314 217.519 42.1378 217.519 41.7028V38.1685H218.853V44.5592Z" fill="#EC0000"/>
<path d="M224.316 44.5592V38.1685H226.536C228.763 38.1685 229.876 39.2052 229.876 41.2823C229.876 42.2791 229.574 43.073 228.966 43.6675C228.357 44.262 227.55 44.5592 226.536 44.5592H224.316ZM225.729 39.3429V43.392H226.429C227.041 43.392 227.521 43.2035 227.87 42.8301C228.219 42.4568 228.393 41.9456 228.393 41.3004C228.393 40.6914 228.219 40.2129 227.874 39.8613C227.529 39.5133 227.045 39.3393 226.419 39.3393H225.729V39.3429Z" fill="#EC0000"/>
<path d="M238.709 44.5592H234.949V38.1685H238.563V39.3393H236.358V40.7603H238.407V41.9275H236.358V43.3884H238.706V44.5556L238.709 44.5592Z" fill="#EC0000"/>
<path d="M249.004 44.5592H247.382L246.407 42.9135C246.332 42.7903 246.265 42.6779 246.197 42.58C246.129 42.4821 246.062 42.3988 245.994 42.3263C245.927 42.2574 245.855 42.203 245.781 42.1668C245.706 42.1305 245.624 42.1124 245.539 42.1124H245.158V44.5592H243.746V38.1685H245.984C247.506 38.1685 248.267 38.7484 248.267 39.9048C248.267 40.1295 248.235 40.3325 248.168 40.521C248.1 40.7095 248.008 40.8799 247.883 41.0322C247.762 41.1844 247.613 41.3149 247.438 41.4237C247.264 41.5324 247.072 41.6194 246.859 41.681V41.6991C246.951 41.7281 247.044 41.7753 247.129 41.8441C247.214 41.913 247.3 41.9891 247.382 42.0761C247.463 42.1668 247.542 42.261 247.616 42.3625C247.691 42.464 247.759 42.5655 247.819 42.6634L249.004 44.552V44.5592ZM245.155 39.2487V41.0249H245.767C246.069 41.0249 246.314 40.9343 246.496 40.7567C246.681 40.5754 246.777 40.3507 246.777 40.0824C246.777 39.5242 246.45 39.2451 245.795 39.2451H245.155V39.2487Z" fill="#EC0000"/>
<path d="M12.7555 13.1681C13.9775 13.1681 14.968 12.1586 14.968 10.9134C14.968 9.66816 13.9775 8.65869 12.7555 8.65869C11.5336 8.65869 10.543 9.66816 10.543 10.9134C10.543 12.1586 11.5336 13.1681 12.7555 13.1681Z" fill="white"/>
<path d="M18.2243 13.1681C19.4462 13.1681 20.4368 12.1586 20.4368 10.9134C20.4368 9.66816 19.4462 8.65869 18.2243 8.65869C17.0023 8.65869 16.0117 9.66816 16.0117 10.9134C16.0117 12.1586 17.0023 13.1681 18.2243 13.1681Z" fill="white"/>
<path d="M12.7555 18.7423C13.9775 18.7423 14.968 17.7329 14.968 16.4876C14.968 15.2424 13.9775 14.2329 12.7555 14.2329C11.5336 14.2329 10.543 15.2424 10.543 16.4876C10.543 17.7329 11.5336 18.7423 12.7555 18.7423Z" fill="white"/>
<path d="M18.2243 18.7423C19.4462 18.7423 20.4368 17.7329 20.4368 16.4876C20.4368 15.2424 19.4462 14.2329 18.2243 14.2329C17.0023 14.2329 16.0117 15.2424 16.0117 16.4876C16.0117 17.7329 17.0023 18.7423 18.2243 18.7423Z" fill="white"/>
<path d="M12.7555 24.3131C13.9775 24.3131 14.968 23.3037 14.968 22.0584C14.968 20.8132 13.9775 19.8037 12.7555 19.8037C11.5336 19.8037 10.543 20.8132 10.543 22.0584C10.543 23.3037 11.5336 24.3131 12.7555 24.3131Z" fill="#990000"/>
<path d="M18.2243 24.3131C19.4462 24.3131 20.4368 23.3037 20.4368 22.0584C20.4368 20.8132 19.4462 19.8037 18.2243 19.8037C17.0023 19.8037 16.0117 20.8132 16.0117 22.0584C16.0117 23.3037 17.0023 24.3131 18.2243 24.3131Z" fill="#990000"/>
<path d="M12.7555 29.7533C13.9775 29.7533 14.968 28.7439 14.968 27.4986C14.968 26.2534 13.9775 25.2439 12.7555 25.2439C11.5336 25.2439 10.543 26.2534 10.543 27.4986C10.543 28.7439 11.5336 29.7533 12.7555 29.7533Z" fill="#990000"/>
<path d="M18.2243 29.7533C19.4462 29.7533 20.4368 28.7439 20.4368 27.4986C20.4368 26.2534 19.4462 25.2439 18.2243 25.2439C17.0023 25.2439 16.0117 26.2534 16.0117 27.4986C16.0117 28.7439 17.0023 29.7533 18.2243 29.7533Z" fill="#990000"/>
<path d="M12.7555 35.3275C13.9775 35.3275 14.968 34.3181 14.968 33.0728C14.968 31.8276 13.9775 30.8181 12.7555 30.8181C11.5336 30.8181 10.543 31.8276 10.543 33.0728C10.543 34.3181 11.5336 35.3275 12.7555 35.3275Z" fill="#990000"/>
<path d="M18.2243 35.3275C19.4462 35.3275 20.4368 34.3181 20.4368 33.0728C20.4368 31.8276 19.4462 30.8181 18.2243 30.8181C17.0023 30.8181 16.0117 31.8276 16.0117 33.0728C16.0117 34.3181 17.0023 35.3275 18.2243 35.3275Z" fill="#990000"/>
<path d="M12.7555 40.7677C13.9775 40.7677 14.968 39.7583 14.968 38.513C14.968 37.2678 13.9775 36.2583 12.7555 36.2583C11.5336 36.2583 10.543 37.2678 10.543 38.513C10.543 39.7583 11.5336 40.7677 12.7555 40.7677Z" fill="white"/>
<path d="M18.2243 40.7677C19.4462 40.7677 20.4368 39.7583 20.4368 38.513C20.4368 37.2678 19.4462 36.2583 18.2243 36.2583C17.0023 36.2583 16.0117 37.2678 16.0117 38.513C16.0117 39.7583 17.0023 40.7677 18.2243 40.7677Z" fill="#990000"/>
<path d="M34.6344 13.1681C35.8564 13.1681 36.847 12.1586 36.847 10.9134C36.847 9.66816 35.8564 8.65869 34.6344 8.65869C33.4125 8.65869 32.4219 9.66816 32.4219 10.9134C32.4219 12.1586 33.4125 13.1681 34.6344 13.1681Z" fill="white"/>
<path d="M40.1032 13.1681C41.3251 13.1681 42.3157 12.1586 42.3157 10.9134C42.3157 9.66816 41.3251 8.65869 40.1032 8.65869C38.8812 8.65869 37.8906 9.66816 37.8906 10.9134C37.8906 12.1586 38.8812 13.1681 40.1032 13.1681Z" fill="white"/>
<path d="M34.6344 18.7423C35.8564 18.7423 36.847 17.7329 36.847 16.4876C36.847 15.2424 35.8564 14.2329 34.6344 14.2329C33.4125 14.2329 32.4219 15.2424 32.4219 16.4876C32.4219 17.7329 33.4125 18.7423 34.6344 18.7423Z" fill="#990000"/>
<path d="M40.1032 18.7423C41.3251 18.7423 42.3157 17.7329 42.3157 16.4876C42.3157 15.2424 41.3251 14.2329 40.1032 14.2329C38.8812 14.2329 37.8906 15.2424 37.8906 16.4876C37.8906 17.7329 38.8812 18.7423 40.1032 18.7423Z" fill="#990000"/>
<path d="M34.6344 24.3131C35.8564 24.3131 36.847 23.3037 36.847 22.0584C36.847 20.8132 35.8564 19.8037 34.6344 19.8037C33.4125 19.8037 32.4219 20.8132 32.4219 22.0584C32.4219 23.3037 33.4125 24.3131 34.6344 24.3131Z" fill="white"/>
<path d="M40.1032 24.3131C41.3251 24.3131 42.3157 23.3037 42.3157 22.0584C42.3157 20.8132 41.3251 19.8037 40.1032 19.8037C38.8812 19.8037 37.8906 20.8132 37.8906 22.0584C37.8906 23.3037 38.8812 24.3131 40.1032 24.3131Z" fill="white"/>
<path d="M34.6344 29.7533C35.8564 29.7533 36.847 28.7439 36.847 27.4986C36.847 26.2534 35.8564 25.2439 34.6344 25.2439C33.4125 25.2439 32.4219 26.2534 32.4219 27.4986C32.4219 28.7439 33.4125 29.7533 34.6344 29.7533Z" fill="white"/>
<path d="M40.1032 29.7533C41.3251 29.7533 42.3157 28.7439 42.3157 27.4986C42.3157 26.2534 41.3251 25.2439 40.1032 25.2439C38.8812 25.2439 37.8906 26.2534 37.8906 27.4986C37.8906 28.7439 38.8812 29.7533 40.1032 29.7533Z" fill="white"/>
<path d="M34.6344 35.3275C35.8564 35.3275 36.847 34.3181 36.847 33.0728C36.847 31.8276 35.8564 30.8181 34.6344 30.8181C33.4125 30.8181 32.4219 31.8276 32.4219 33.0728C32.4219 34.3181 33.4125 35.3275 34.6344 35.3275Z" fill="white"/>
<path d="M40.1032 35.3275C41.3251 35.3275 42.3157 34.3181 42.3157 33.0728C42.3157 31.8276 41.3251 30.8181 40.1032 30.8181C38.8812 30.8181 37.8906 31.8276 37.8906 33.0728C37.8906 34.3181 38.8812 35.3275 40.1032 35.3275Z" fill="white"/>
<path d="M34.6344 40.7677C35.8564 40.7677 36.847 39.7583 36.847 38.513C36.847 37.2678 35.8564 36.2583 34.6344 36.2583C33.4125 36.2583 32.4219 37.2678 32.4219 38.513C32.4219 39.7583 33.4125 40.7677 34.6344 40.7677Z" fill="white"/>
<path d="M40.1032 40.7677C41.3251 40.7677 42.3157 39.7583 42.3157 38.513C42.3157 37.2678 41.3251 36.2583 40.1032 36.2583C38.8812 36.2583 37.8906 37.2678 37.8906 38.513C37.8906 39.7583 38.8812 40.7677 40.1032 40.7677Z" fill="white"/>
<path d="M34.6344 46.3419C35.8564 46.3419 36.847 45.3325 36.847 44.0872C36.847 42.842 35.8564 41.8325 34.6344 41.8325C33.4125 41.8325 32.4219 42.842 32.4219 44.0872C32.4219 45.3325 33.4125 46.3419 34.6344 46.3419Z" fill="#990000"/>
<path d="M40.1032 46.3419C41.3251 46.3419 42.3157 45.3325 42.3157 44.0872C42.3157 42.842 41.3251 41.8325 40.1032 41.8325C38.8812 41.8325 37.8906 42.842 37.8906 44.0872C37.8906 45.3325 38.8812 46.3419 40.1032 46.3419Z" fill="#990000"/>
<path d="M23.6969 46.3419C24.9189 46.3419 25.9095 45.3325 25.9095 44.0872C25.9095 42.842 24.9189 41.8325 23.6969 41.8325C22.475 41.8325 21.4844 42.842 21.4844 44.0872C21.4844 45.3325 22.475 46.3419 23.6969 46.3419Z" fill="#990000"/>
<path d="M29.1657 46.3419C30.3876 46.3419 31.3782 45.3325 31.3782 44.0872C31.3782 42.842 30.3876 41.8325 29.1657 41.8325C27.9437 41.8325 26.9531 42.842 26.9531 44.0872C26.9531 45.3325 27.9437 46.3419 29.1657 46.3419Z" fill="#990000"/>
<path d="M18.2243 46.3419C19.4462 46.3419 20.4368 45.3325 20.4368 44.0872C20.4368 42.842 19.4462 41.8325 18.2243 41.8325C17.0023 41.8325 16.0117 42.842 16.0117 44.0872C16.0117 45.3325 17.0023 46.3419 18.2243 46.3419Z" fill="white"/>
</svg>
