<svg width="32" height="33" viewBox="0 0 32 33" fill="none" xmlns="http://www.w3.org/2000/svg">
<rect y="0.75293" width="32" height="31.8353" rx="6" fill="#FFF2F3"/>
<path d="M11 18.7529C12.1046 18.7529 13 17.8575 13 16.7529C13 15.6484 12.1046 14.7529 11 14.7529C9.89542 14.7529 9 15.6484 9 16.7529C9 17.8575 9.89542 18.7529 11 18.7529Z" fill="#990000"/>
<path d="M21 18C22.1046 18 23 17.1046 23 16C23 14.8954 22.1046 14 21 14C19.8954 14 19 14.8954 19 16C19 17.1046 19.8954 18 21 18Z" fill="#990000"/>
<path d="M16 13.7529C17.1046 13.7529 18 12.8575 18 11.7529C18 10.6484 17.1046 9.75293 16 9.75293C14.8954 9.75293 14 10.6484 14 11.7529C14 12.8575 14.8954 13.7529 16 13.7529Z" fill="#EC0000"/>
<path d="M16 23.5884C17.1046 23.5884 18 22.6929 18 21.5884C18 20.4838 17.1046 19.5884 16 19.5884C14.8954 19.5884 14 20.4838 14 21.5884C14 22.6929 14.8954 23.5884 16 23.5884Z" fill="#EC0000"/>
</svg>
